<svg width="944" height="213" viewBox="0 0 944 213" fill="none" xmlns="http://www.w3.org/2000/svg">
<g filter="url(#filter0_d_216_104)">
<path d="M162.478 21.2109C176.218 34.8828 183.088 53.3057 183.088 76.4795C183.088 99.7217 176.218 118.11 162.478 131.646C148.806 145.249 130.246 152.051 106.799 152.051C83.3516 152.051 64.8262 145.249 51.2227 131.646C37.4824 118.11 30.6123 99.7217 30.6123 76.4795C30.6123 53.3057 37.4824 34.8828 51.2227 21.2109C64.8945 7.67578 83.4199 0.908203 106.799 0.908203C130.178 0.908203 148.737 7.67578 162.478 21.2109ZM106.901 122.725C120.095 122.725 130.314 118.384 137.561 109.702C144.807 101.021 148.43 89.9463 148.43 76.4795C148.43 63.0811 144.807 52.041 137.561 43.3594C130.314 34.6777 120.095 30.3369 106.901 30.3369C93.708 30.3369 83.4883 34.6777 76.2422 43.3594C68.9277 52.1094 65.2705 63.1494 65.2705 76.4795C65.2705 89.8779 68.9277 100.952 76.2422 109.702C83.4883 118.384 93.708 122.725 106.901 122.725ZM240.51 123.955H269.938V45H300.188V123.955H329.616V45H359.865V150H210.261V45H240.51V123.955ZM502.292 150H472.043V87.041L474.606 73.3008H472.453L467.634 87.041L426.926 150H389.089V45H419.338V107.959L416.877 120.571H418.928L423.747 107.959L464.558 45H502.292V150ZM559.816 68.0713H560.842C561.457 67.1143 562.927 65.6787 565.251 63.7646C567.028 62.3975 569.113 61.1328 571.506 59.9707C577.795 57.0996 585.725 55.6641 595.295 55.6641C611.291 55.6641 623.869 59.9023 633.029 68.3789C642.189 76.9238 646.77 88.6475 646.77 103.55C646.77 118.589 641.335 130.415 630.466 139.028C619.665 147.71 605.412 152.051 587.707 152.051C569.387 152.051 554.758 146.582 543.82 135.645C532.883 124.775 527.414 107.856 527.414 84.8877C527.414 63.9014 532.438 46.9824 542.487 34.1309C552.399 21.3477 567.404 14.9561 587.502 14.9561C594.543 14.9561 599.431 14.0674 602.165 12.29C604.968 10.4443 606.369 7.33398 606.369 2.95898H638.156C638.293 5.83008 638.361 7.36816 638.361 7.57324C638.361 18.2373 635.012 26.3379 628.312 31.875C621.545 37.4121 609.753 40.1807 592.937 40.1807C582.204 40.1807 574.001 42.8467 568.327 48.1787C562.653 53.6475 559.816 60.2783 559.816 68.0713ZM587.707 126.929C596.252 126.929 603.054 124.81 608.112 120.571C613.171 116.333 615.7 110.728 615.7 103.755C615.7 96.8506 613.171 91.2793 608.112 87.041C603.122 82.9395 596.32 80.8887 587.707 80.8887C579.709 80.8887 573.078 83.0078 567.814 87.2461C562.482 91.5527 559.816 97.0557 559.816 103.755C559.816 110.522 562.482 116.06 567.814 120.366C573.01 124.741 579.641 126.929 587.707 126.929ZM745.412 45H780.891L736.594 95.6543L784.89 150H749.001L702.141 98.5254V150H671.892V45H702.141V94.1162L745.412 45ZM791.145 120.366C791.145 109.565 795.588 101.465 804.475 96.0645C813.361 90.7324 824.606 88.0664 838.21 88.0664C845.251 88.0664 851.574 88.7842 857.18 90.2197C862.785 91.792 866.682 93.2275 868.869 94.5264L872.253 96.8848V81.5039C872.253 76.9922 870.544 73.1982 867.126 70.1221C863.708 67.1143 858 65.6104 850.002 65.6104C844.26 65.6104 839.133 66.6699 834.621 68.7891C829.904 70.9766 827.546 74.3262 827.546 78.8379H796.477C796.545 66.875 801.398 57.8857 811.037 51.8701C820.607 45.9229 833.596 42.9492 850.002 42.9492C866.613 42.9492 879.499 46.1621 888.659 52.5879C897.888 59.0137 902.502 68.6523 902.502 81.5039V114.316C902.502 118.555 903.015 121.494 904.04 123.135C905.065 124.775 906.843 125.596 909.372 125.596L913.781 124.775V150C911.184 151.367 906.843 152.051 900.759 152.051C892.897 152.051 886.95 150.342 882.917 146.924C879.294 143.984 877.004 141.284 876.047 138.823L875.432 137.388H873.894C873.894 137.661 873.552 138.276 872.868 139.233C872.185 140.122 870.852 141.353 868.869 142.925C866.955 144.497 864.665 145.898 861.999 147.129C855.026 150.41 845.9 152.051 834.621 152.051C822.18 152.051 811.823 149.351 803.552 143.95C795.28 138.618 791.145 130.757 791.145 120.366ZM847.028 129.185C852.429 129.185 857.282 128.501 861.589 127.134C865.69 125.835 868.527 124.502 870.1 123.135L872.253 121.187V114.932C871.706 114.385 870.988 113.804 870.1 113.188C868.938 112.437 866.237 111.514 861.999 110.42C857.487 109.258 852.497 108.677 847.028 108.677C830.485 108.677 822.214 112.095 822.214 118.931C822.214 125.767 830.485 129.185 847.028 129.185Z" fill="white"/>
</g>
<defs>
<filter id="filter0_d_216_104" x="0.612305" y="0.908203" width="943.169" height="211.143" filterUnits="userSpaceOnUse" color-interpolation-filters="sRGB">
<feFlood flood-opacity="0" result="BackgroundImageFix"/>
<feColorMatrix in="SourceAlpha" type="matrix" values="0 0 0 0 0 0 0 0 0 0 0 0 0 0 0 0 0 0 127 0" result="hardAlpha"/>
<feOffset dy="30"/>
<feGaussianBlur stdDeviation="15"/>
<feComposite in2="hardAlpha" operator="out"/>
<feColorMatrix type="matrix" values="0 0 0 0 0 0 0 0 0 0 0 0 0 0 0 0 0 0 0.3 0"/>
<feBlend mode="normal" in2="BackgroundImageFix" result="effect1_dropShadow_216_104"/>
<feBlend mode="normal" in="SourceGraphic" in2="effect1_dropShadow_216_104" result="shape"/>
</filter>
</defs>
</svg>
